<svg xmlns="http://www.w3.org/2000/svg" viewBox="0 0 158.48 160.32"><path d="M48.44,113.8c-.08,2,0,4.75.07,6.73a10,10,0,0,0,.92,4.37A3.73,3.73,0,0,0,53.11,127c1.77-.32,2.77-2.26,3-4a35,35,0,0,0-.21-6.56" fill="#5765a0" stroke="#ede4da" stroke-linecap="round" stroke-miterlimit="10" stroke-width="2"/><path d="M60.3,117.57a40.15,40.15,0,0,0,.5,6.48c.29,1.72,1,3.74,2.76,4s3.11-.56,3.57-2.63a34,34,0,0,0,.32-6.3" fill="#5765a0" stroke="#ede4da" stroke-linecap="round" stroke-miterlimit="10" stroke-width="2"/><path d="M111.12,119.4c.09,2.54.2,5.5,1.15,7.8.49,1.17,1.51,2.37,2.62,2s1.41-1.91,1.48-3.19c.12-2.35.18-5.34.11-7.69" fill="#5765a0" stroke="#ede4da" stroke-linecap="round" stroke-miterlimit="10" stroke-width="2"/><path d="M119.92,117.52a34.44,34.44,0,0,0,.82,8.61,6.22,6.22,0,0,0,1.05,2.38,2.54,2.54,0,0,0,2.28,1,2.58,2.58,0,0,0,1.85-1.54,7,7,0,0,0,.49-2.44,50.25,50.25,0,0,0-.42-9.65" fill="#5765a0" stroke="#ede4da" stroke-linecap="round" stroke-miterlimit="10" stroke-width="2"/><path d="M27.22,54.69a94.43,94.43,0,0,0,1.84,32.23c2.1,9,5.91,18.19,13.41,23.59a40.84,40.84,0,0,0,12,5.44,122.12,122.12,0,0,0,70.77.08,12.52,12.52,0,0,0,4.5-2.08,11.23,11.23,0,0,0,3-4.84,23.78,23.78,0,0,0,1.65-11,14.17,14.17,0,0,0-5.16-9.67c-2.8-2.13-6.39-2.88-9.85-3.51-14.25-2.59-28.76-4.21-43.21-3.34-3.51-13.44-1.28-28.39-7.63-40.74a18.51,18.51,0,0,0-5.64-6.93C57.4,30,47.24,29.56,41,32.13,31.54,36.07,28.33,45.11,27.22,54.69Z" fill="#5765a0" stroke="#ede4da" stroke-linecap="round" stroke-miterlimit="10" stroke-width="2"/><path d="M36.31,34.7A3.72,3.72,0,0,1,36,33.37a15.44,15.44,0,0,1,.18-5.51" fill="none" stroke="#ede4da" stroke-linecap="round" stroke-miterlimit="10" stroke-width="2"/><path d="M41.13,31.93a13.42,13.42,0,0,1-.54-5.59" fill="none" stroke="#ede4da" stroke-linecap="round" stroke-miterlimit="10" stroke-width="2"/><path d="M45.17,31c0-1.55.11-3.49.26-5" fill="none" stroke="#ede4da" stroke-linecap="round" stroke-miterlimit="10" stroke-width="2"/><path d="M50.44,30.54a22,22,0,0,0,0-4.59" fill="none" stroke="#ede4da" stroke-linecap="round" stroke-miterlimit="10" stroke-width="2"/><path d="M57,31.28c-.11-1.71-.33-4.2-.51-5.91" fill="none" stroke="#ede4da" stroke-linecap="round" stroke-miterlimit="10" stroke-width="2"/><path d="M61.29,32.9a27,27,0,0,0-.18-5.82" fill="none" stroke="#ede4da" stroke-linecap="round" stroke-miterlimit="10" stroke-width="2"/><path d="M37,61.45a11.22,11.22,0,0,0,21,1.41" fill="none" stroke="#ede4da" stroke-linecap="round" stroke-miterlimit="10" stroke-width="2"/><path d="M28.69,60.52a1.66,1.66,0,0,0,1.06,1.1,3.78,3.78,0,0,0,1.57.16,4.2,4.2,0,0,0,3.4-1.56C36.14,58,27.93,57.18,28.69,60.52Z" fill="#e96448" stroke="#e96448" stroke-miterlimit="10"/><path d="M61.1,59.65a1.83,1.83,0,0,0-.37,2,1.88,1.88,0,0,0,1.39.81,4,4,0,0,0,3.61-1.29,1.81,1.81,0,0,0,.4-2,2.06,2.06,0,0,0-1.49-.85A3.69,3.69,0,0,0,61.1,59.65Z" fill="#e96448" stroke="#e96448" stroke-miterlimit="10"/><path d="M40.93,55.76a.81.81,0,0,0-.61,1.14.78.78,0,1,0,.87-1.12.51.51,0,0,0-.57.2" fill="none" stroke="#ede4da" stroke-linecap="round" stroke-miterlimit="10" stroke-width="2"/><path d="M53.35,55a.81.81,0,0,0-.62,1.14A.78.78,0,1,0,53.6,55a.5.5,0,0,0-.57.2" fill="none" stroke="#ede4da" stroke-linecap="round" stroke-miterlimit="10" stroke-width="2"/></svg>