<svg xmlns="http://www.w3.org/2000/svg" viewBox="0 0 180.29 167.89"><path d="M40.29,28.1c-2.81,4.19-4.17,9.18-5.23,14.11A109,109,0,0,0,33.4,75.64c1.09,11,5,20.14,11.07,29.4,2.72,4.12,7,8.6,9.3,9.9a30.75,30.75,0,0,0,8.62,3.49c18.84,2.83,38.31,1.06,57.26-1.67,4.61-.67,8.22-1.51,11.19-5.11,2.75-3.31,3.29-5.22,3.19-9.53A17.31,17.31,0,0,0,131,92.86c-2.67-3.78-12.12-6.22-16.72-6.75-12-1.38-14.45-1.06-26.49-2.43a35.57,35.57,0,0,1-7.06-1.29,12.33,12.33,0,0,1-7.43-7.76C72.14,71,72,67.19,71.87,63.35c-.35-8.75-.13-18.23-1.45-26.89A23.18,23.18,0,0,0,66.78,27C60,17.37,46.37,19,40.29,28.1Z" fill="none" stroke="#ede4da" stroke-linecap="round" stroke-miterlimit="10" stroke-width="2"/><path d="M43.25,46.08a10.46,10.46,0,0,0,6.1,5.21,8.87,8.87,0,0,0,7-.91A12.46,12.46,0,0,0,60.67,46" fill="none" stroke="#ede4da" stroke-linecap="round" stroke-miterlimit="10" stroke-width="2"/><path d="M42.38,39.56a3.94,3.94,0,0,0,3.26,1.74,4.51,4.51,0,0,0,3.63-1.54" fill="none" stroke="#ede4da" stroke-linecap="round" stroke-miterlimit="10" stroke-width="2"/><path d="M52.48,107.61A6.89,6.89,0,0,1,49.42,104" fill="none" stroke="#ede4da" stroke-linecap="round" stroke-miterlimit="10" stroke-width="2"/><path d="M47.15,100.53a13.83,13.83,0,0,1-3.68-8.23" fill="none" stroke="#ede4da" stroke-linecap="round" stroke-miterlimit="10" stroke-width="2"/><path d="M56.71,101.87a9.69,9.69,0,0,1-4.14-5.46" fill="none" stroke="#ede4da" stroke-linecap="round" stroke-miterlimit="10" stroke-width="2"/><path d="M115.34,91.26l3,.15a14.1,14.1,0,0,1,3.11.4,4.64,4.64,0,0,1,2.58,1.68" fill="none" stroke="#ede4da" stroke-linecap="round" stroke-miterlimit="10" stroke-width="2"/><path d="M127,95.66A6.68,6.68,0,0,1,130,99" fill="none" stroke="#ede4da" stroke-linecap="round" stroke-miterlimit="10" stroke-width="2"/><path d="M122.61,97a7.08,7.08,0,0,1,1.65,3.33" fill="none" stroke="#ede4da" stroke-linecap="round" stroke-miterlimit="10" stroke-width="2"/><path d="M125.8,107.76a151.56,151.56,0,0,1,.38,23.82,27.13,27.13,0,0,0-9.55-.34" fill="none" stroke="#ede4da" stroke-linecap="round" stroke-miterlimit="10" stroke-width="2"/><path d="M107.38,108.38a207.3,207.3,0,0,0,.3,23.91,32.89,32.89,0,0,0-10.69,1" fill="none" stroke="#ede4da" stroke-linecap="round" stroke-miterlimit="10" stroke-width="2"/><path d="M74.18,106.33c.57,9.69.68,19.42.32,29.13a72.84,72.84,0,0,0-11.81-.54" fill="none" stroke="#ede4da" stroke-linecap="round" stroke-miterlimit="10" stroke-width="2"/><path d="M56.25,106.82c-.38,8.94-1.11,17-2.19,25.87a23.62,23.62,0,0,0-11.48-.45" fill="none" stroke="#ede4da" stroke-linecap="round" stroke-miterlimit="10" stroke-width="2"/><path d="M40.67,27.19a27.82,27.82,0,0,1-1-4" fill="none" stroke="#ede4da" stroke-linecap="round" stroke-miterlimit="10" stroke-width="2"/><path d="M43.46,24.54c-.3-1.82-.66-4.52-.85-6.36" fill="none" stroke="#ede4da" stroke-linecap="round" stroke-miterlimit="10" stroke-width="2"/><path d="M46.86,22.3c-.11-1.8-.18-4-.18-5.78" fill="none" stroke="#ede4da" stroke-linecap="round" stroke-miterlimit="10" stroke-width="2"/><path d="M51.6,20.73a25.68,25.68,0,0,1,.25-5.11" fill="none" stroke="#ede4da" stroke-linecap="round" stroke-miterlimit="10" stroke-width="2"/><path d="M56.34,20.6a20.62,20.62,0,0,0,.38-5.08" fill="none" stroke="#ede4da" stroke-linecap="round" stroke-miterlimit="10" stroke-width="2"/><path d="M60.49,21.5c.19-2,.41-3.59.75-5.58" fill="none" stroke="#ede4da" stroke-linecap="round" stroke-miterlimit="10" stroke-width="2"/><path d="M64.22,23.67a31.18,31.18,0,0,1,.23-4.53" fill="none" stroke="#ede4da" stroke-linecap="round" stroke-miterlimit="10" stroke-width="2"/><path d="M66.7,26.5a3.6,3.6,0,0,0,.08-1.09,8.33,8.33,0,0,1,.28-2.28" fill="none" stroke="#ede4da" stroke-linecap="round" stroke-miterlimit="10" stroke-width="2"/><path d="M54.06,39.33a4.38,4.38,0,0,0,3.53,1.74,5.1,5.1,0,0,0,3.94-1.54" fill="none" stroke="#ede4da" stroke-linecap="round" stroke-miterlimit="10" stroke-width="2"/></svg>