<svg xmlns="http://www.w3.org/2000/svg" viewBox="0 0 158.48 160.32"><path d="M43.17,119.75c-.09,2.3,0,5.54.08,7.84a11.43,11.43,0,0,0,1.08,5.08,4.29,4.29,0,0,0,4.28,2.4c2-.37,3.22-2.63,3.43-4.71a41.3,41.3,0,0,0-.24-7.63" fill="none" stroke="#ede4da" stroke-linecap="round" stroke-miterlimit="10" stroke-width="2"/><path d="M57,124.14a46.57,46.57,0,0,0,.58,7.55c.34,2,1.21,4.36,3.21,4.67s3.62-.65,4.15-3.05A39.11,39.11,0,0,0,65.3,126" fill="none" stroke="#ede4da" stroke-linecap="round" stroke-miterlimit="10" stroke-width="2"/><path d="M116.13,126.28c.11,2.95.23,6.39,1.34,9.07.57,1.36,1.75,2.76,3,2.35s1.64-2.22,1.71-3.7c.15-2.74.22-6.22.14-9" fill="none" stroke="#ede4da" stroke-linecap="round" stroke-miterlimit="10" stroke-width="2"/><path d="M126.37,124.09a39.93,39.93,0,0,0,.95,10,7.29,7.29,0,0,0,1.23,2.77,2.69,2.69,0,0,0,4.8-.6,7.86,7.86,0,0,0,.57-2.84,57.11,57.11,0,0,0-.49-11.24" fill="none" stroke="#ede4da" stroke-linecap="round" stroke-miterlimit="10" stroke-width="2"/><path d="M18.48,51a109.81,109.81,0,0,0,2.13,37.51c2.45,10.48,6.88,21.17,15.61,27.46,4.17,3,9.08,4.82,14,6.33a142.14,142.14,0,0,0,82.37.1,14.49,14.49,0,0,0,5.23-2.43,13.1,13.1,0,0,0,3.51-5.63,27.77,27.77,0,0,0,1.92-12.85,16.49,16.49,0,0,0-6-11.25c-3.26-2.49-7.44-3.36-11.47-4.09-16.58-3-33.47-4.91-50.29-3.88C71.4,66.58,74,49.18,66.61,34.8A21.55,21.55,0,0,0,60,26.74c-6.43-4.49-18.25-5-25.47-2C23.5,29.29,19.77,39.81,18.48,51Z" fill="none" stroke="#ede4da" stroke-linecap="round" stroke-miterlimit="10" stroke-width="2"/><path d="M29.06,27.69a4.1,4.1,0,0,1-.33-1.55,17.91,17.91,0,0,1,.21-6.41" fill="none" stroke="#ede4da" stroke-linecap="round" stroke-miterlimit="10" stroke-width="2"/><path d="M34.66,24.47A15.81,15.81,0,0,1,34,18" fill="none" stroke="#ede4da" stroke-linecap="round" stroke-miterlimit="10" stroke-width="2"/><path d="M39.37,23.33c0-1.81.12-4.07.3-5.87" fill="none" stroke="#ede4da" stroke-linecap="round" stroke-miterlimit="10" stroke-width="2"/><path d="M45.5,22.84a26.47,26.47,0,0,0,0-5.34" fill="none" stroke="#ede4da" stroke-linecap="round" stroke-miterlimit="10" stroke-width="2"/><path d="M53.14,23.71c-.13-2-.38-4.89-.6-6.88" fill="none" stroke="#ede4da" stroke-linecap="round" stroke-miterlimit="10" stroke-width="2"/><path d="M58.12,25.6a31.35,31.35,0,0,0-.2-6.78" fill="none" stroke="#ede4da" stroke-linecap="round" stroke-miterlimit="10" stroke-width="2"/><path d="M29.83,58.83a13.4,13.4,0,0,0,11.64,9.28,13.38,13.38,0,0,0,12.77-7.65" fill="none" stroke="#ede4da" stroke-linecap="round" stroke-miterlimit="10" stroke-width="2"/><path d="M20.18,57.74A1.93,1.93,0,0,0,21.42,59a4.34,4.34,0,0,0,1.83.19,4.91,4.91,0,0,0,4-1.81C28.86,54.81,19.3,53.86,20.18,57.74Z" fill="#ede4da" stroke="#ede4da" stroke-miterlimit="10"/><path d="M57.91,56.72A2.15,2.15,0,0,0,57.47,59a2.19,2.19,0,0,0,1.62.95,4.63,4.63,0,0,0,4.2-1.49,2.13,2.13,0,0,0,.47-2.31,2.36,2.36,0,0,0-1.73-1A4.29,4.29,0,0,0,57.91,56.72Z" fill="#ede4da" stroke="#ede4da" stroke-miterlimit="10"/><path d="M34.44,52.2a.9.9,0,1,0,.79,1.45,1,1,0,0,0-.5-1.43.57.57,0,0,0-.66.24" fill="none" stroke="#ede4da" stroke-linecap="round" stroke-miterlimit="10" stroke-width="2"/><path d="M48.88,51.31a.92.92,0,1,0,.3,0,.59.59,0,0,0-.67.24" fill="none" stroke="#ede4da" stroke-linecap="round" stroke-miterlimit="10" stroke-width="2"/></svg>