<?xml version="1.0" encoding="UTF-8"?><svg id="a" xmlns="http://www.w3.org/2000/svg" viewBox="0 0 293.13 363.3"><defs><style>.b{fill:#30303d;}.c{fill:#ede4da;}.d{fill:#ea6e48;}.e{fill:rgba(255,255,255,.28);}</style></defs><path class="b" d="M0,42.58c-.04-7.62-.11-22.86,7.43-30.51,7.54-7.66,22.71-7.74,63.55-7.89,40.84-.15,107.36-.38,148.53-.27,41.17,.11,56.99,.57,64.99,6.7,8,6.12,8.18,17.92,8.27,55.4s.09,100.65,.27,137.96c.18,37.31,.54,48.77-4.83,54.36-5.37,5.59-16.46,5.3-54.97,5.13-38.51-.17-104.44-.23-137.4,11.33-32.96,11.56-32.96,34.73-3.28,46.34,29.68,11.61,89.05,11.66,123.39,11.63,34.35-.03,43.67-.14,51.81-.12,8.15,.02,15.11,.17,18.64,5.08,3.53,4.91,3.62,14.57-2.85,19.45-6.47,4.88-19.5,4.97-59.8,5.25-40.31,.28-107.88,.73-149.26,.87s-56.55-.06-64.59-6.17C1.87,351,.96,338.98,.5,286.84,.04,234.71,.04,142.46,.04,96.33V50.2L0,42.58"/><path d="M105.84,3.86V100.25l33.77-31.66,34.48,32.37,.7-97.1H105.84Z"/><path class="d" d="M101.58,0V96.39l33.77-31.66,34.48,32.37,.7-97.1H101.58Z"/><path class="c" d="M48.65,263.06h222.83c.31,0,.61,0,.91,.03-4.32,1.54-7.42,5.67-7.42,10.53v48.42c0,4.97,3.24,9.18,7.72,10.63-.4,.03-.81,.05-1.22,.05H48.65c-8.17,0-14.79-6.62-14.79-14.79v-40.08c0-8.17,6.62-14.79,14.79-14.79Z"/><path d="M65.92,275.49c-10.39,.19-15.64-.33-18.74,2.73-2.52,2.48-2.12,7.14-2.18,12.75-.1,10.37,.31,39.43,.33,41.27-6.6-1.66-11.47-7.44-11.47-14.31v-40.08c0-8.17,6.88-14.79,15.36-14.79h221.69c.47,0,.93,.02,1.39,.06-4.28,1.57-7.33,5.67-7.33,10.5v.54c-53.22-.16-170.59,.79-199.05,1.32Z"/><path class="e" d="M0,42.58c-.04-7.62-.11-22.86,7.43-30.51,7.54-7.66,22.71-7.74,63.55-7.89,15.62-.06-5.84-.13,14.43-.19v7.03h0c-.16,8.67-6.96,15.29-15.95,15.65-15.59,.63-42.07-2.12-45.55,7.44-3.7,10.17-1.24,78.99-1.24,78.99,0,8.84-6.88,15.89-15.57,16.46v.04H.05c0-12.53,0-23.86,0-33.28V50.2L0,42.58h0Z"/></svg>