<?xml version="1.0" encoding="utf-8"?>
<svg fill="current" stroke="rgb(255, 255, 255)" viewBox="0 0 500 500" width="500" height="500" xmlns="http://www.w3.org/2000/svg">
  <path style="fill: none; vector-effect: non-scaling-stroke; stroke-width: 3px;" d="M 71.394 361.744 C 61.494 315.287 44.674 250.546 51.271 201.661 C 56.214 165.037 61.505 128.15 72.309 92.807 C 81.888 61.479 100.257 49.89 129.024 47.07 C 136.914 46.297 144.97 45.866 152.808 47.07 C 177.227 50.828 187.552 91.622 192.141 108.359 C 197.87 129.253 196.203 160.401 197.631 180.623 C 199.576 208.179 200.983 235.907 206.777 262.952 C 209.641 276.315 218.282 307.046 229.648 313.262 C 246.538 322.499 293.918 312.58 312.889 310.518 C 361.476 305.24 405.609 313.776 450.101 340.704 C 459.934 346.655 459.749 361.669 462.908 372.721 C 464.08 376.825 465.249 381.959 462.908 385.528 C 451.129 403.475 434.402 405.383 415.34 410.225 C 387.583 417.275 360.463 418.262 332.099 420.287 C 271.176 424.638 200.165 436.127 139.087 427.605 C 127.702 426.016 93.485 423.053 86.031 410.225 C 76.148 393.218 73.226 373.026 66.821 354.425"/>
  <path style="paint-order: fill; fill: none; vector-effect: non-scaling-stroke; stroke-width: 3px;" d="M 142.745 393.759 C 144.269 414.189 145.235 434.667 147.319 455.049 C 147.982 461.532 153.185 468.125 150.978 474.258 C 149.572 478.16 143.182 477.27 139.087 477.917 C 125.748 480.023 112.254 480.966 98.838 482.491"/>
  <path style="stroke: rgb(255, 255, 255); paint-order: fill; fill: none; vector-effect: non-scaling-stroke; stroke-width: 3px;" d="M 219.585 399.249 C 220.803 412.971 221.834 426.709 223.243 440.412 C 224.22 449.893 224.59 459.523 226.903 468.77 C 227.534 471.298 231.574 474.335 229.648 476.087 C 226.457 478.987 221.068 477.072 216.84 477.917 C 207.337 479.818 197.934 482.186 188.483 484.321"/>
  <path style="stroke: rgb(255, 255, 255); paint-order: fill; fill: none; vector-effect: non-scaling-stroke; stroke-width: 3px;" d="M 299.167 386.442 C 309.634 415.226 310.668 420.299 314.719 448.646 C 315.726 455.691 323.593 464.841 318.378 469.684 C 307.52 479.765 290.669 469.815 278.128 472.428 C 274.247 473.237 270.811 475.477 267.151 477.002"/>
  <path style="stroke: rgb(255, 255, 255); paint-order: fill; fill: none; vector-effect: non-scaling-stroke; stroke-width: 3px;" d="M 415.34 396.503 C 413.691 411.771 410.874 426.92 409.852 442.241 C 409.508 447.413 413.09 453.745 409.852 457.792 C 406.752 461.668 400.147 459.977 395.216 460.537 C 372.414 463.129 359.666 463.218 339.415 473.342"/>
  <path style="stroke: rgb(255, 255, 255); fill: none; vector-effect: non-scaling-stroke; stroke-width: 3px;" d="M 101.581 121.582 C 101.581 130.778 105.659 137.487 110.075 141.921 C 111.056 142.906 114.324 141.595 115.304 142.579 C 117.102 144.385 127.662 143.289 129.024 141.921 C 136.448 134.465 142.745 131.392 142.745 115.676"/>
  <path style="stroke: rgb(255, 255, 255); fill: none; vector-effect: non-scaling-stroke; stroke-width: 3px;" d="M 88.775 94.638 C 91.824 98.602 92.937 106.147 97.923 106.53 C 103.825 106.984 107.68 99.821 112.559 96.467"/>
  <path style="stroke: rgb(255, 255, 255); fill: none; vector-effect: non-scaling-stroke; stroke-width: 3px;" d="M 128.11 94.638 C 131.464 97.687 133.638 103.785 138.172 103.785 C 145.265 103.785 150.978 97.687 157.381 94.638"/>
  <path style="stroke: rgb(255, 255, 255); fill: none; vector-effect: non-scaling-stroke; stroke-width: 3px;" d="M 91.519 58.047 C 91.519 48.628 85.117 41.812 85.117 35.179"/>
  <path style="stroke: rgb(255, 255, 255); fill: none; vector-effect: non-scaling-stroke; stroke-width: 3px;" d="M 104.326 50.73 C 104.326 41.955 98.838 36.537 98.838 27.86"/>
  <path style="stroke: rgb(255, 255, 255); fill: none; vector-effect: non-scaling-stroke; stroke-width: 3px;" d="M 118.961 48.9 C 118.961 44.921 117.744 26.031 115.303 26.031"/>
  <path style="stroke: rgb(255, 255, 255); fill: none; vector-effect: non-scaling-stroke; stroke-width: 3px;" d="M 134.513 49.814 C 137.105 42.038 141.831 32.769 141.831 24.201"/>
  <path style="stroke: rgb(255, 255, 255); fill: none; vector-effect: non-scaling-stroke; stroke-width: 3px;" d="M 152.808 47.985 C 155.027 41.326 156.466 35.818 156.466 28.776"/>
  <path style="stroke: rgb(255, 255, 255); fill: none; vector-effect: non-scaling-stroke; stroke-width: 3px;" d="M 163.785 56.218 C 168.38 51.622 170.188 47.791 170.188 39.752"/>
</svg>