<svg fill="current" stroke="current" xmlns="http://www.w3.org/2000/svg" viewBox="0 0 108.44 104.47"><defs><style>.cls-1{fill:none;stroke:#fff;stroke-miterlimit:10;stroke-width:0.5px;}</style></defs><g id="Layer_2" data-name="Layer 2"><g id="Layer_1-2" data-name="Layer 1"><path fill="current" stroke="current" class="cls-1" d="M.87,29.35A94.43,94.43,0,0,0,2.71,61.58c2.1,9,5.91,18.19,13.41,23.59a40.84,40.84,0,0,0,12,5.44,122.12,122.12,0,0,0,70.77.08,12.52,12.52,0,0,0,4.5-2.08,11.23,11.23,0,0,0,3-4.84,23.78,23.78,0,0,0,1.65-11,14.17,14.17,0,0,0-5.16-9.67c-2.8-2.13-6.39-2.88-9.85-3.51C78.81,57,64.3,55.34,49.85,56.21c-3.51-13.44-1.28-28.39-7.63-40.74a18.51,18.51,0,0,0-5.64-6.93C31.05,4.69,20.89,4.22,14.69,6.79,5.19,10.73,2,19.77.87,29.35Z"/><path class="cls-1" d="M10,9.36A3.72,3.72,0,0,1,9.68,8a15.44,15.44,0,0,1,.18-5.51"/><path class="cls-1" d="M14.78,6.59A13.42,13.42,0,0,1,14.24,1"/><path class="cls-1" d="M18.82,5.61c0-1.55.11-3.49.26-5"/><path class="cls-1" d="M24.09,5.2a22,22,0,0,0,0-4.59"/><path class="cls-1" d="M30.65,5.94c-.11-1.71-.33-4.2-.51-5.91"/><path class="cls-1" d="M34.94,7.56a27,27,0,0,0-.18-5.82"/><path class="cls-1" d="M22.09,88.46c-.08,2,0,4.75.07,6.73a10,10,0,0,0,.92,4.37,3.73,3.73,0,0,0,3.68,2.06c1.77-.32,2.77-2.26,2.94-4.05A34.18,34.18,0,0,0,29.5,91"/><path class="cls-1" d="M34,92.23a40.15,40.15,0,0,0,.5,6.48c.29,1.72,1,3.74,2.76,4s3.11-.56,3.57-2.63a34,34,0,0,0,.32-6.3"/><path class="cls-1" d="M84.77,94.06c.09,2.54.2,5.5,1.15,7.8.49,1.17,1.51,2.37,2.62,2S90,102,90,100.69c.13-2.35.19-5.34.12-7.69"/><path class="cls-1" d="M93.57,92.18a34.44,34.44,0,0,0,.82,8.61,6.22,6.22,0,0,0,1,2.38,2.54,2.54,0,0,0,2.28,1,2.58,2.58,0,0,0,1.85-1.54,7,7,0,0,0,.49-2.44,50.25,50.25,0,0,0-.42-9.65"/><path class="cls-1" d="M10.63,36.11a11.52,11.52,0,0,0,10,8,11.53,11.53,0,0,0,11-6.57"/><path class="cls-1" d="M2.34,35.18a1.66,1.66,0,0,0,1.06,1.1A3.78,3.78,0,0,0,5,36.44a4.2,4.2,0,0,0,3.4-1.56C9.79,32.66,1.58,31.84,2.34,35.18Z"/><path class="cls-1" d="M34.75,34.31a1.83,1.83,0,0,0-.37,1.95,1.88,1.88,0,0,0,1.39.81,4,4,0,0,0,3.61-1.29,1.81,1.81,0,0,0,.4-2A2.06,2.06,0,0,0,38.29,33,3.69,3.69,0,0,0,34.75,34.31Z"/><path class="cls-1" d="M14.58,30.42A.81.81,0,0,0,14,31.56a.78.78,0,1,0,.87-1.12.51.51,0,0,0-.57.2"/><path class="cls-1" d="M27,29.66a.81.81,0,0,0-.62,1.14.78.78,0,1,0,.87-1.12.5.5,0,0,0-.57.2"/></g></g></svg>